<?xml version="1.0" encoding="UTF-8"?>
<svg id="Layer_1" xmlns="http://www.w3.org/2000/svg" version="1.1" viewBox="0 0 250 226.1">
  <!-- Generator: Adobe Illustrator 30.2.0, SVG Export Plug-In . SVG Version: 2.1.1 Build 105)  -->
  <defs>
    <style>
      .st0 {
        fill: #fa0f00;
      }
    </style>
  </defs>
  <path class="st0" d="M244.3,226.1h-52c-4.8.3-9.2-2.7-10.8-7.2l-55.6-129.2c0-1-.8-1.8-1.8-1.8s-1.8.8-1.8,1.8l-35.9,82.6c0,2,1.6,3.6,3.6,3.6h37.7c2.4-.1,4.6,1.3,5.4,3.6l16.2,37.7c1.1,3.8-1.1,7.8-4.9,8.9-.1,0-.3,0-.4.1H5.7c-3.9-.8-6.3-4.7-5.5-8.5,0-.1,0-.3.1-.4L88.2,7.2c2-4.2,6.1-7,10.8-7.2h50.2c4.6.2,8.8,3,10.8,7.2l89.7,210c1.1,3.8-1.1,7.8-4.9,8.9-.1,0-.3,0-.4.1Z"/>
</svg>