<svg preserveAspectRatio="none" overflow="visible" style="display: block;" width="64" height="64" viewBox="0 0 64 64" fill="none" xmlns="http://www.w3.org/2000/svg">
<g id="Frame">
<path id="iconPrimary" d="M47.1406 18.4H46.2313V13.6C46.2313 9.63126 43 6.4 39.0313 6.4H11.8313C7.86253 6.4 4.63126 9.63126 4.63126 13.6V50.4C4.63126 54.3687 7.86253 57.6 11.8313 57.6H39.0313C43 57.6 46.2313 54.3687 46.2313 50.4V45.6H47.1406C54.1375 45.6 59.8313 39.5 59.8313 32C59.8313 24.5 54.1375 18.4 47.1406 18.4ZM9.43126 20.8H20.1625C20.9938 23.725 23.3063 26.0375 26.2313 26.8687V33.9312C23.3063 34.7625 20.9938 37.075 20.1625 40H9.43126V20.8ZM41.4313 50.4C41.4313 51.7219 40.3532 52.8 39.0313 52.8H11.8313C10.5094 52.8 9.43126 51.7219 9.43126 50.4V44.8H22.2313C23.5563 44.8 24.6313 43.725 24.6313 42.4C24.6313 40.1938 26.425 38.4 28.6313 38.4C29.9563 38.4 31.0313 37.325 31.0313 36V24.8C31.0313 23.475 29.9563 22.4 28.6313 22.4C26.425 22.4 24.6313 20.6062 24.6313 18.4C24.6313 17.075 23.5563 16 22.2313 16H9.43126V13.6C9.43126 12.2781 10.5094 11.2 11.8313 11.2H39.0313C40.3532 11.2 41.4313 12.2781 41.4313 13.6V50.4ZM47.1406 40.8H46.2313V23.2H47.1406C51.4907 23.2 55.0313 27.1469 55.0313 32C55.0313 36.8531 51.4906 40.8 47.1406 40.8Z" fill="#292929"/>
</g>
</svg>
