<svg preserveAspectRatio="none" overflow="visible" style="display: block;" width="52.2397" height="59.0002" viewBox="0 0 52.2397 59.0002" fill="none" xmlns="http://www.w3.org/2000/svg">
<g id="g849">
<path id="path6" d="M52.2396 41.3V13.7667L28.3938 0V10.5708L37.7355 15.9792C38.1042 16.225 38.1042 16.7167 37.7355 16.8396L26.673 23.2312C26.3042 23.4771 25.9355 23.3542 25.6896 23.2312L14.6271 16.8396C14.2584 16.7167 14.2584 16.1021 14.6271 15.9792L23.9688 10.5708V0L6.27972e-05 13.7667V41.3L9.09589 36.0146V25.1979C9.09589 24.8292 9.58756 24.5833 9.83339 24.7062L20.8959 31.0979C21.2646 31.3437 21.3875 31.5896 21.3875 31.9583V44.7416C21.3875 45.1104 20.8959 45.3562 20.65 45.2333L11.3084 39.825L2.21256 45.1104L26.0584 59L49.9042 45.2333L40.8084 39.9479L31.4667 45.3562C31.098 45.6021 30.7292 45.3562 30.7292 44.8646V32.0812C30.7292 31.7125 30.975 31.3437 31.2209 31.2208L42.2834 24.8292C42.6521 24.5833 43.0209 24.8292 43.0209 25.3208V36.1375L52.2396 41.3Z" fill="#4C4C4C"/>
<path id="path8" d="M26.0583 59.0002L49.9041 45.2336L40.8082 39.9482L31.4666 45.3565C31.0978 45.6023 30.7291 45.3565 30.7291 44.8648V32.0815C30.7291 31.7127 30.9749 31.344 31.2207 31.2211L42.2832 24.8294C42.652 24.5836 43.0207 24.8294 43.0207 25.3211V36.1377L52.1166 41.4232V13.7669L26.0583 28.8857V59.0002Z" fill="black"/>
<path id="path10" d="M28.3938 0V10.5708L37.7355 15.9792C38.1042 16.225 38.1042 16.7167 37.7355 16.8396L26.673 23.2312C26.3042 23.4771 25.9355 23.3541 25.6896 23.2312L14.6271 16.8396C14.2584 16.7167 14.2584 16.1021 14.6271 15.9792L23.9688 10.5708V0L6.27972e-05 13.7667L26.0584 28.8854L52.1167 13.7667L28.3938 0Z" fill="#808080"/>
<path id="path12" d="M20.7729 45.3565L11.4312 39.9482L2.33542 45.2336L26.1812 59.0002V28.8857L0 13.7669V41.3002L9.09583 36.0148V25.1982C9.09583 24.8294 9.58749 24.5836 9.83333 24.7065L20.8958 31.0982C21.2646 31.344 21.3875 31.5898 21.3875 31.9586V44.7419C21.5104 45.2336 21.1417 45.6023 20.7729 45.3565Z" fill="#4C4C4C"/>
</g>
</svg>
