<svg preserveAspectRatio="none" width="100%" height="100%" overflow="visible" style="display: block;" viewBox="0 0 64 64" fill="none" xmlns="http://www.w3.org/2000/svg">
<path id="Vector" d="M32.0534 0C32.2905 2.68285 33.6542 5.58804 36.0319 7.96555C40.4373 12.3708 46.657 13.2957 49.924 10.0258C52.3105 7.63945 52.4617 3.67891 50.6533 0H53.1051C51.2966 3.67891 51.4478 7.63945 53.8343 10.0258C56.2505 12.4419 60.2794 12.5694 63.997 10.6869V13.3994C60.2764 11.5111 56.2357 11.6356 53.8195 14.0516C50.5525 17.3214 51.4745 23.5379 55.8799 27.9461C58.302 30.3681 61.2726 31.7347 64 31.9363V32.0608C61.2785 32.2624 58.3169 33.632 55.8977 36.048C51.4923 40.4532 50.5703 46.6727 53.8373 49.9395C56.2535 52.3556 60.2824 52.483 64 50.6035V53.319C60.2794 51.4306 56.2387 51.5522 53.8225 53.9742C51.436 56.3576 51.2848 60.3241 53.0932 64H50.6414C52.4499 60.3241 52.2987 56.3576 49.9122 53.9742C46.6452 50.7043 40.4254 51.6293 36.02 56.0345C33.6424 58.412 32.2787 61.3172 32.0415 64H31.9496C31.7124 61.3172 30.3487 58.409 27.9711 56.0345C23.5657 51.6293 17.3459 50.7073 14.0789 53.9742C11.6924 56.3576 11.5412 60.3241 13.3496 64H10.8949C12.7034 60.3241 12.5522 56.3576 10.1656 53.9742C7.75245 51.5581 3.72059 51.4336 0.0029675 53.3131V50.5976C3.72355 52.486 7.76431 52.3645 10.1834 49.9425C11.5027 48.6233 12.1371 46.8238 12.1371 44.8584C12.1371 46.8298 12.7715 48.6263 14.0908 49.9425C17.3578 53.2123 23.5775 52.2874 27.983 47.8851C32.3884 43.4799 33.3103 37.2605 30.0463 33.9907C26.7763 30.7238 20.5596 31.6457 16.1512 36.0509C13.5245 38.6775 12.1371 41.9502 12.1371 44.8554C12.1371 41.9473 10.7497 38.6775 8.12007 36.0509C5.69798 33.629 2.72448 32.2594 0 32.0608V31.9363C2.72151 31.7347 5.68613 30.3681 8.10228 27.9491C12.5077 23.5438 13.4297 17.3244 10.1627 14.0546C7.7495 11.6415 3.71762 11.514 0 13.3935V10.681C3.72355 12.5694 7.76136 12.4478 10.1805 10.0258C11.4997 8.70666 12.1341 6.90722 12.1341 4.94178C12.1341 6.91019 12.7686 8.70666 14.0878 10.0258C17.3548 13.2957 23.5746 12.3708 27.98 7.96555C30.3576 5.58804 31.7213 2.68285 31.9585 0H32.0504H32.0534ZM47.8636 36.048C43.4582 31.6428 37.2385 30.7208 33.9685 33.9877C30.7015 37.2545 31.6265 43.474 36.0319 47.8822C40.4373 52.2874 46.657 53.2093 49.924 49.9395C53.194 46.6727 52.269 40.4532 47.8636 36.048ZM27.9652 16.1149C23.5598 11.7097 17.34 10.7877 14.073 14.0546C10.806 17.3244 11.728 23.5409 16.1334 27.9491C20.5388 32.3543 26.7586 33.2762 30.0285 30.0094C33.2955 26.7425 32.3735 20.5231 27.9652 16.1178V16.1149ZM49.9062 14.0546C46.6392 10.7877 40.4195 11.7097 36.0141 16.1149C31.6087 20.5201 30.6867 26.7396 33.9507 30.0064C37.2207 33.2732 43.4375 32.3513 47.8458 27.9461C52.2513 23.5409 53.1703 17.3185 49.9062 14.0516V14.0546ZM13.3615 0C12.5522 1.64528 12.1341 3.34689 12.1341 4.93881C12.1341 3.34689 11.7161 1.64528 10.9068 0H13.3585H13.3615Z" fill="var(--fill-0, #EB1000)"/>
</svg>
